<?xml version="1.0" encoding="UTF-8"?>
<svg width="512px" height="512px" viewBox="0 0 512 512" version="1.1" xmlns="http://www.w3.org/2000/svg" xmlns:xlink="http://www.w3.org/1999/xlink">
    <!-- Generator: Sketch 59.1 (86144) - https://sketch.com -->
    <title>magic_02</title>
    <desc>Created with Sketch.</desc>
    <g id="magic_02" stroke="none" stroke-width="1" fill="none" fill-rule="evenodd">
        <g id="Group-2" transform="translate(119.000000, 92.000000)" fill="#000000" fill-rule="nonzero">
            <polygon id="Path" points="124 97.5373134 131.5 106 148 87.3283582 140.5 79"></polygon>
            <polygon id="Path" points="128 112.522546 120.636364 104 83 146.612732 90.5 155"></polygon>
            <polygon id="Path" points="150 50.4444444 142.479592 42 83 109.555556 90.5204082 118"></polygon>
            <path d="M274,110.077922 L237.147,110.077922 C235.229,49.0297444 191.8,0 137,0 C82.2,0 38.771,49.0297444 36.853,110.077922 L0,110.077922 L0,122.096355 L17.399,122.096355 C20.824,187.651445 64.801,240.778383 121.245,249.245915 L121.245,314.11814 L94.804,314.11814 L94.804,326 L179.196,326 L179.196,314.11814 L152.755,314.11814 L152.755,249.245915 C209.199,240.778383 253.176,187.651445 256.601,122.096355 L274,122.096355 L274,110.077922 Z M137,12.0184332 C186.457,12.0184332 226.735,57.7704231 226.735,114.175115 C226.735,170.579807 186.457,216.331797 137,216.331797 C87.543,216.331797 47.265,170.443234 47.265,114.175115 C47.265,57.9069962 87.543,12.0184332 137,12.0184332 Z M131.794,314.11814 L131.794,259.488898 L142.206,259.488898 L142.206,314.11814 L131.794,314.11814 Z M137,238.593213 C79.049,238.593213 31.647,186.96858 27.4,122.096355 L36.442,122.096355 C40.141,181.369083 83.433,228.213657 136.452,228.213657 C189.471,228.213657 232.352,181.369083 236.462,122.096355 L246.6,122.096355 C242.353,186.96858 194.951,238.593213 137,238.593213 Z" id="Shape"></path>
        </g>
    </g>
</svg>