<?xml version="1.0" encoding="UTF-8"?>
<svg width="512px" height="512px" viewBox="0 0 512 512" version="1.1" xmlns="http://www.w3.org/2000/svg" xmlns:xlink="http://www.w3.org/1999/xlink">
    <!-- Generator: Sketch 59.1 (86144) - https://sketch.com -->
    <title>magic_01</title>
    <desc>Created with Sketch.</desc>
    <g id="magic_01" stroke="none" stroke-width="1" fill="none" fill-rule="evenodd">
        <g id="Group" transform="translate(101.000000, 101.000000)" fill="#000000" fill-rule="nonzero">
            <path d="M304,54.2799234 C304,50.8832237 302.873038,48.0506565 300.605225,45.7861899 L263.21773,8.39934518 C260.952562,6.13289461 258.121269,5 254.721203,5 C251.319153,5 248.490505,6.13289461 246.224676,8.39934518 L3.39940434,251.219068 C1.13026887,253.486842 0,256.320731 0,259.719415 C0,263.119422 1.13026887,265.948021 3.39940434,268.215794 L40.7855771,305.599993 C43.0547125,307.867767 45.8833609,309 49.2840879,309 C52.6815082,309 55.5134633,307.873058 57.7806147,305.599993 L300.607871,62.7782864 C302.873038,60.5098517 304,57.6805913 304,54.2799234 Z M219.597552,109.605258 L199.395567,89.400979 L254.719219,34.0763056 L274.921204,54.2799234 L219.597552,109.605258 Z" id="Shape"></path>
            <polygon id="Path" points="43.0009852 48 48.6255593 29.6251539 67 24.0006568 48.6255593 18.3748461 43.0009852 0 37.3750975 18.3748461 19 24.0006568 37.3750975 29.6251539"></polygon>
            <polygon id="Path" points="92.1314439 71.867737 103.5 109 114.868556 71.867737 152 60.4993365 114.868556 49.132263 103.5 12 92.1314439 49.132263 55 60.4993365"></polygon>
            <polygon id="Path" points="290.622778 139.375195 284.999015 121 279.375908 139.375195 261 145.000657 279.375908 150.626119 284.999015 169 290.622778 150.626119 309 145.000657"></polygon>
            <polygon id="Path" points="164 48 169.625965 29.6251539 188 24.0006568 169.625965 18.3748461 164 0 158.376662 18.3748461 140 24.0006568 158.376662 29.6251539"></polygon>
        </g>
    </g>
</svg>