<?xml version="1.0" encoding="UTF-8"?>
<svg width="512px" height="512px" viewBox="0 0 512 512" version="1.1" xmlns="http://www.w3.org/2000/svg" xmlns:xlink="http://www.w3.org/1999/xlink">
    <!-- Generator: Sketch 59.1 (86144) - https://sketch.com -->
    <title>magic_03</title>
    <desc>Created with Sketch.</desc>
    <g id="magic_03" stroke="none" stroke-width="1" fill="none" fill-rule="evenodd">
        <g id="magic_01" transform="translate(42.000000, 51.000000)" fill="#000000">
            <g id="Group" transform="translate(42.214844, 42.214844)">
                <path d="M127.0625,22.6873117 C127.0625,21.2675974 126.591465,20.0836728 125.64359,19.1371966 L110.016785,3.5106638 C109.070016,2.56335829 107.886624,2.08984375 106.465503,2.08984375 C105.043552,2.08984375 103.861266,2.56335829 102.91422,3.5106638 L1.42084478,105.00172 C0.472417069,105.949578 0,107.134056 0,108.554599 C0,109.975696 0.472417069,111.157962 1.42084478,112.10582 L17.0470967,127.731247 C17.9955244,128.679106 19.177811,129.152344 20.5992086,129.152344 C22.0192241,129.152344 23.2028929,128.681317 24.1504913,127.731247 L125.644696,26.2393619 C126.591465,25.2912271 127.0625,24.1086846 127.0625,22.6873117 Z M91.7849143,45.8115728 L83.3411158,37.3668154 L106.464674,14.2428308 L114.908472,22.6873117 L91.7849143,45.8115728 Z" id="Shape" fill-rule="nonzero"></path>
                <polygon id="Path" fill-rule="nonzero" points="17.973068 20.0625 20.3239642 12.3823886 28.0039062 10.0315245 20.3239642 7.68011144 17.973068 0 15.6216228 7.68011144 7.94140625 10.0315245 15.6216228 12.3823886"></polygon>
                <polygon id="Path" fill-rule="nonzero" points="38.5080645 30.0384682 43.2597656 45.5585938 48.0114668 30.0384682 63.53125 25.286832 48.0114668 20.5357506 43.2597656 5.015625 38.5080645 20.5357506 22.9882812 25.286832"></polygon>
                <polygon id="Path" fill-rule="nonzero" points="121.471239 58.254476 119.120682 50.5742188 116.770399 58.254476 109.089844 60.6057433 116.770399 62.9570105 119.120682 70.6367188 121.471239 62.9570105 129.152344 60.6057433"></polygon>
                <polygon id="Path" fill-rule="nonzero" points="68.546875 20.0625 70.8983524 12.3823886 78.578125 10.0315245 70.8983524 7.68011144 68.546875 0 66.1964956 7.68011144 58.515625 10.0315245 66.1964956 12.3823886"></polygon>
            </g>
        </g>
        <g id="magic_02" transform="translate(123.000000, 97.000000)" fill="#000000">
            <g id="Group-2" transform="translate(82.742188, 63.968750)">
                <polygon id="Path" fill-rule="nonzero" points="86.21875 67.8189132 91.4335938 73.703125 102.90625 60.7204991 97.6914062 54.9296875"></polygon>
                <polygon id="Path" fill-rule="nonzero" points="89 78.2383331 83.8799716 72.3125 57.7109375 101.941665 62.9257812 107.773438"></polygon>
                <polygon id="Path" fill-rule="nonzero" points="104.296875 35.0746528 99.0678412 29.203125 57.7109375 76.1753472 62.9399713 82.046875"></polygon>
                <path d="M190.515625,76.5385552 L164.891273,76.5385552 C163.557664,34.0909942 133.360938,0 95.2578125,0 C57.1546875,0 26.9579609,34.0909942 25.6243516,76.5385552 L0,76.5385552 L0,84.895122 L12.0977422,84.895122 C14.4791875,130.476396 45.0569453,167.416219 84.3031641,173.303801 L84.3031641,218.410269 L65.9184063,218.410269 L65.9184063,226.671875 L124.597219,226.671875 L124.597219,218.410269 L106.212461,218.410269 L106.212461,173.303801 C145.45868,167.416219 176.036437,130.476396 178.417883,84.895122 L190.515625,84.895122 L190.515625,76.5385552 Z M95.2578125,8.35656682 C129.645883,8.35656682 157.65168,40.1684973 157.65168,79.3873848 C157.65168,118.606272 129.645883,150.418203 95.2578125,150.418203 C60.8697422,150.418203 32.8639453,118.511311 32.8639453,79.3873848 C32.8639453,40.2634583 60.8697422,8.35656682 95.2578125,8.35656682 Z M91.6380156,218.410269 L91.6380156,180.425875 L98.8776094,180.425875 L98.8776094,218.410269 L91.6380156,218.410269 Z M95.2578125,165.896844 C54.9637578,165.896844 22.0045547,130.001591 19.0515625,84.895122 L25.3385781,84.895122 C27.9105391,126.10819 58.0120078,158.679809 94.8767813,158.679809 C131.741555,158.679809 161.55725,126.10819 164.414984,84.895122 L171.464063,84.895122 C168.51107,130.001591 135.551867,165.896844 95.2578125,165.896844 Z" id="Shape" fill-rule="nonzero"></path>
            </g>
        </g>
    </g>
</svg>