<?xml version="1.0" encoding="UTF-8"?>
<svg width="512px" height="512px" viewBox="0 0 512 512" version="1.1" xmlns="http://www.w3.org/2000/svg" xmlns:xlink="http://www.w3.org/1999/xlink">
    <!-- Generator: Sketch 59.1 (86144) - https://sketch.com -->
    <title>sunny_01</title>
    <desc>Created with Sketch.</desc>
    <g id="sunny_01" stroke="none" stroke-width="1" fill="none" fill-rule="evenodd">
        <g id="sun" transform="translate(118.000000, 119.000000)" fill="#000000" fill-rule="nonzero">
            <path d="M139,205 C176.089286,205 206,174.85 206,138 C206,101.15 175.85,71 139,71 C102.15,71 72,101.15 72,138 C72,174.85 101.910714,205 139,205 Z M139,90.3821429 C165.321429,90.3821429 186.617857,111.678571 186.617857,138 C186.617857,164.321429 165.321429,185.617857 139,185.617857 C112.678571,185.617857 91.3821429,164.321429 91.3821429,138 C91.3821429,111.678571 112.678571,90.3821429 139,90.3821429 Z" id="Shape"></path>
            <path d="M149,40.2843602 L149,9.71563981 C149,4.26540284 144.609756,0 139,0 C133.390244,0 129,4.26540284 129,9.71563981 L129,40.2843602 C129,45.7345972 133.390244,50 139,50 C144.609756,50 149,45.7345972 149,40.2843602 Z" id="Path"></path>
            <path d="M129,235.71564 L129,266.28436 C129,271.734597 133.390244,276 139,276 C144.609756,276 149,271.734597 149,266.28436 L149,235.71564 C149,230.265403 144.609756,226 139,226 C133.390244,226 129,230.265403 129,235.71564 Z" id="Path"></path>
            <path d="M214.589595,75.1560694 L236.156069,53.5895954 C239.947977,49.7976879 239.947977,43.6358382 236.156069,39.8439306 C232.364162,36.0520231 226.202312,36.0520231 222.410405,39.8439306 L200.843931,61.4104046 C197.052023,65.2023121 197.052023,71.3641618 200.843931,75.1560694 C202.739884,77.0520231 205.109827,78 207.716763,78 C210.323699,78 212.693642,77.0520231 214.589595,75.1560694 L214.589595,75.1560694 Z" id="Path"></path>
            <path d="M40.8439306,235.156069 C42.7398844,237.052023 45.1098266,238 47.716763,238 C50.0867052,238 52.6936416,237.052023 54.5895954,235.156069 L76.1560694,213.589595 C79.9479769,209.797688 79.9479769,203.635838 76.1560694,199.843931 C72.3641618,196.052023 66.2023121,196.052023 62.4104046,199.843931 L40.8439306,221.410405 C37.0520231,225.202312 37.0520231,231.364162 40.8439306,235.156069 Z" id="Path"></path>
            <path d="M277,138 C277,132.390244 272.734597,128 267.28436,128 L236.71564,128 C231.265403,128 227,132.390244 227,138 C227,143.609756 231.265403,148 236.71564,148 L267.28436,148 C272.49763,148 277,143.609756 277,138 Z" id="Path"></path>
            <path d="M9.71563981,148 L40.2843602,148 C45.7345972,148 50,143.609756 50,138 C50,132.390244 45.7345972,128 40.2843602,128 L9.71563981,128 C4.26540284,128 0,132.390244 0,138 C0,143.609756 4.50236967,148 9.71563981,148 Z" id="Path"></path>
            <path d="M229.283237,238 C231.653179,238 234.260116,237.052023 236.156069,235.156069 C239.947977,231.364162 239.947977,225.202312 236.156069,221.410405 L214.589595,199.843931 C210.797688,196.052023 204.635838,196.052023 200.843931,199.843931 C197.052023,203.635838 197.052023,209.797688 200.843931,213.589595 L222.410405,235.156069 C224.306358,237.052023 226.913295,238 229.283237,238 L229.283237,238 Z" id="Path"></path>
            <path d="M76.1560694,75.1560694 C79.9479769,71.3641618 79.9479769,65.2023121 76.1560694,61.4104046 L54.5895954,39.8439306 C50.7976879,36.0520231 44.6358382,36.0520231 40.8439306,39.8439306 C37.0520231,43.6358382 37.0520231,49.7976879 40.8439306,53.5895954 L62.4104046,75.1560694 C64.3063584,77.0520231 66.6763006,78 69.283237,78 C71.8901734,78 74.2601156,77.0520231 76.1560694,75.1560694 L76.1560694,75.1560694 Z" id="Path"></path>
        </g>
    </g>
</svg>